<?xml version="1.0" encoding="UTF-8" standalone="no"?>
<svg
   xmlns:dc="http://purl.org/dc/elements/1.1/"
   xmlns:cc="http://creativecommons.org/ns#"
   xmlns:rdf="http://www.w3.org/1999/02/22-rdf-syntax-ns#"
   xmlns:svg="http://www.w3.org/2000/svg"
   xmlns="http://www.w3.org/2000/svg"
   xmlns:sodipodi="http://sodipodi.sourceforge.net/DTD/sodipodi-0.dtd"
   xmlns:inkscape="http://www.inkscape.org/namespaces/inkscape"
   version="1.0"
   width="128.000000pt"
   height="128.000000pt"
   viewBox="0 0 128.000000 128.000000"
   preserveAspectRatio="xMidYMid meet"
   id="svg3051"
   inkscape:version="0.48.4 r9939"
   sodipodi:docname="spaghetto.svg">
  <defs
     id="defs3061" />
  <sodipodi:namedview
     pagecolor="#ffffff"
     bordercolor="#666666"
     borderopacity="1"
     objecttolerance="10"
     gridtolerance="10"
     guidetolerance="10"
     inkscape:pageopacity="0"
     inkscape:pageshadow="2"
     inkscape:window-width="1280"
     inkscape:window-height="1003"
     id="namedview3059"
     showgrid="false"
     inkscape:zoom="5.6568543"
     inkscape:cx="119.94576"
     inkscape:cy="49.134929"
     inkscape:window-x="0"
     inkscape:window-y="21"
     inkscape:window-maximized="1"
     inkscape:current-layer="svg3051" />
  <metadata
     id="metadata3053">
Created by potrace 1.12, written by Peter Selinger 2001-2015
<rdf:RDF>
  <cc:Work
     rdf:about="">
    <dc:format>image/svg+xml</dc:format>
    <dc:type
       rdf:resource="http://purl.org/dc/dcmitype/StillImage" />
    <dc:title></dc:title>
  </cc:Work>
</rdf:RDF>
</metadata>
  <g
     transform="translate(0.000000,128.000000) scale(0.100000,-0.100000)"
     fill="#000000"
     stroke="none"
     id="g3055">
    <path
       d="M415 1168 c-31 -16 -45 -39 -45 -73 0 -39 20 -58 120 -115 41 -24 105 -60 141 -81 36 -21 102 -73 146 -116 65 -64 84 -88 99 -133 67 -200 -67 -404 -266 -404 -78 0 -129 23 -182 82 -45 50 -61 99 -56 172 5 72 41 124 106 152 98 44 222 -21 222 -115 0 -40 -49 -87 -89 -87 -38 0 -43 26 -8 39 13 5 30 23 37 41 16 38 4 71 -35 96 -22 14 -32 15 -64 5 -78 -23 -121 -80 -121 -161 0 -114 93 -190 217 -177 223 23 296 295 121 452 -65 58 -133 79 -238 73 -130 -8 -218 -67 -276 -184 -26 -53 -29 -69 -29 -154 0 -86 3 -102 31 -160 75 -160 210 -238 388 -228 179 11 322 113 387 278 33 84 37 219 11 307 -42 136 -135 242 -294 334 -40 23 -113 68 -163 99 -99 63 -130 74 -160 58z m218 -145 c180 -112 272 -189 314 -261 126 -214 51 -483 -162 -588 -195 -95 -409 -24 -498 165 -62 131 -34 279 70 371 173 152 453 41 453 -179 0 -58 -20 -100 -68 -143 -68 -62 -148 -72 -220 -28 -80 49 -81 174 -1 215 70 36 111 -14 45 -53 -84 -50 -7 -148 86 -109 54 23 88 70 88 123 0 140 -162 219 -300 147 -110 -58 -148 -201 -87 -326 30 -60 65 -95 131 -130 59 -31 192 -30 257 2 192 93 256 329 138 512 -36 56 -159 161 -247 210 -157 87 -211 121 -216 136 -7 18 10 43 31 43 8 0 92 -48 186 -107z"
       id="path3057" />
  </g>
  <path
     style="fill:#ffff00"
     d="M 67.728814,142.35624 C 51.013588,138.99056 37.077356,125.23302 33.192772,108.26302 29.357141,91.506868 37.601353,73.984784 52.855903,66.471389 58.48277,63.699963 63.190696,62.813033 70.071657,63.2281 c 17.459128,1.053152 30.538513,14.022616 30.538513,30.281866 0,6.704044 -1.498536,10.303884 -6.493418,15.598724 -7.584948,8.04044 -15.948614,10.60808 -24.35404,7.47665 -11.416379,-4.25314 -15.364105,-17.528106 -7.539444,-25.352764 3.326809,-3.326813 8.15295,-5.079376 10.511466,-3.817132 2.475376,1.32478 1.72896,3.450827 -2.633039,7.49981 -3.370153,3.128312 -4.067797,4.155519 -4.067797,5.989406 0,3.44171 1.67135,5.91752 5.122607,7.58824 7.058079,3.41676 16.989625,-1.17009 20.45816,-9.448541 1.170655,-2.794034 1.232062,-9.409945 0.119048,-12.826101 -1.998986,-6.135467 -7.07192,-11.079095 -14.076207,-13.717412 -3.174787,-1.195853 -4.933752,-1.398515 -10.321141,-1.189169 -5.731408,0.222714 -7.042643,0.522378 -11.164215,2.551421 -10.867929,5.350264 -16.614153,15.767004 -15.712783,28.484092 1.163442,16.41455 13.169499,29.76013 28.754724,31.9629 10.059815,1.42184 20.725139,-0.49639 27.881853,-5.01473 15.772726,-9.958 23.555096,-29.23957 19.177916,-47.515175 C 113.57037,70.492526 108.53823,63.272156 96.20339,52.982041 88.717209,46.736833 81.788383,42.157364 67.882229,34.263737 55.456908,27.210683 52.474576,24.97257 52.474576,22.700949 c 0,-2.219099 2.389975,-3.80672 4.514566,-2.998952 2.63483,1.001761 24.960697,14.582634 33.451536,20.348642 19.835422,13.469954 27.385012,21.614891 31.898002,34.413443 6.62981,18.801687 2.76488,38.628198 -10.24591,52.560028 -9.71503,10.40275 -22.836062,16.14645 -36.442177,15.95245 -2.865453,-0.0409 -6.430254,-0.32 -7.921779,-0.62032 z"
     id="path3063"
     inkscape:connector-curvature="0"
     transform="scale(0.8,0.8)" />
  <path
     style="fill:#ffff00"
     d="M 100.2284,88.518344 C 98.636766,79.168812 92.515998,71.149726 83.622274,66.761938 79.019501,64.491124 74.646235,63.40778 69.046003,63.151109 c -3.276287,-0.150159 -6.426242,0.0907 -9.067797,0.693348 -5.421207,1.236811 -11.439926,4.472371 -15.572034,8.371258 l -0.487288,0.459785 0,-0.333592 c 0,-0.29146 0.05619,-0.387768 0.444915,-0.762549 1.861993,-1.79521 4.971903,-3.929658 7.76076,-5.326501 5.005247,-2.506958 10.052219,-3.69346 15.69263,-3.689213 5.725672,0.0043 10.992052,1.247097 16.059322,3.789756 9.027812,4.52998 15.124954,12.427395 16.850579,21.82596 l 0.12058,0.656779 -0.28258,0 c -0.26044,0 -0.28684,-0.02492 -0.33669,-0.317796 l 0,0 z"
     id="path3065"
     inkscape:connector-curvature="0"
     transform="scale(0.8,0.8)" />
  <path
     style="fill:#ffff00"
     d="M 92.091773,88.61309 C 91.571377,86.342274 91.005812,84.799932 90.055253,83.059329 89.060122,81.237114 88.050215,79.88726 86.522489,78.3374 82.851375,74.613098 77.958006,72.254194 72.178687,71.422808 l -0.844549,-0.121493 0.889831,0.04335 c 1.756233,0.08555 3.311614,0.425453 5.252455,1.147843 5.200352,1.935595 9.288177,5.069082 12.034566,9.224993 0.727992,1.101617 1.687545,3.08274 2.101522,4.33887 0.322591,0.978832 0.675399,2.659335 0.578626,2.756109 -0.02402,0.02401 -0.06873,-0.06571 -0.09936,-0.199385 l 0,0 z"
     id="path3067"
     inkscape:connector-curvature="0"
     transform="scale(0.8,0.8)" />
  <path
     style="fill:#ffff00"
     d="m 57.166288,73.490945 0,-0.09418 0.238348,-0.112364 c 1.494656,-0.704625 2.834015,-1.175932 4.0625,-1.429552 0.777807,-0.160578 1.602285,-0.269801 2.732569,-0.361997 0.655738,-0.05349 0.834216,-0.05282 0.466583,0.0017 -2.551168,0.378646 -4.725956,0.965453 -7.007415,1.890758 l -0.492585,0.199781 0,-0.09418 z"
     id="path3069"
     inkscape:connector-curvature="0"
     transform="scale(0.8,0.8)" />
  <path
     style="fill:#ffff00"
     d="m 66.875416,62.581815 c 0.007,-0.007 0.02531,-0.0078 0.04061,-0.0017 0.0169,0.0068 0.01188,0.01178 -0.0128,0.0128 -0.02233,9.2e-4 -0.03485,-0.0041 -0.02781,-0.01113 z"
     id="path3071"
     inkscape:connector-curvature="0"
     transform="scale(0.8,0.8)" />
  <path
     style="fill:#ffff00"
     d="m 57.166288,67.091019 0,-2.410375 0.397246,-0.131704 c 1.537338,-0.509695 3.372745,-0.921386 5.068856,-1.136969 1.627924,-0.206917 3.04312,-0.28105 4.936441,-0.258586 2.658794,0.03155 4.77891,0.225048 7.039195,0.642469 l 0.418432,0.07727 0,2.814133 0,2.814133 -8.930085,0 -8.930085,0 0,-2.410375 z"
     id="path3073"
     inkscape:connector-curvature="0"
     transform="scale(0.8,0.8)" />
  <path
     style="fill:#ffff00"
     d="m 73.674664,143.39967 c -0.784393,-0.0298 -2.956166,-0.24874 -4.062041,-0.40952 -5.917378,-0.86031 -11.505241,-2.87159 -16.536135,-5.95195 l -0.943004,-0.57739 -8.04e-4,-0.34639 -8.03e-4,-0.34639 0.434589,0.29325 c 3.226454,2.17719 7.38567,4.15039 11.190726,5.30905 3.13929,0.95594 4.914371,1.26299 8.659062,1.49785 3.881127,0.24341 6.888399,0.15592 10.260038,-0.29851 10.42923,-1.40564 20.394348,-6.43217 28.151438,-14.19992 5.37976,-5.38715 9.3288,-11.62585 11.85414,-18.72721 1.2297,-3.45794 2.21802,-7.8201 2.56214,-11.308569 l 0.0724,-0.734073 0.23007,0 0.23006,0 -0.0294,0.254678 c -0.41619,3.607024 -0.90304,6.137514 -1.76392,9.168414 -0.86853,3.05788 -1.99195,5.92933 -3.48735,8.91374 -3.88938,7.76212 -9.54251,14.19285 -16.6793,18.97361 -4.119643,2.75965 -8.727166,4.92394 -13.692704,6.43188 -3.653925,1.10962 -7.593255,1.81681 -11.355656,2.03857 -0.919272,0.0542 -3.875434,0.0651 -5.093566,0.0189 z"
     id="path3859"
     inkscape:connector-curvature="0"
     transform="scale(0.8,0.8)" />
  <path
     style="fill:#ffff00"
     d="m 90.788047,132.21283 c 0.01373,-0.0128 0.330141,-0.14787 0.703131,-0.3001 0.871556,-0.35573 2.770994,-1.31423 3.99414,-2.01554 6.961442,-3.99147 12.650282,-9.7695 16.469452,-16.72766 2.45336,-4.46979 4.19164,-9.67372 4.9002,-14.669819 0.0677,-0.477375 0.13476,-0.879617 0.14901,-0.893871 0.0798,-0.07982 0.078,0.104797 -0.007,0.689238 -1.10826,7.634452 -4.17501,14.871602 -8.85903,20.906212 -3.9969,5.14938 -9.449943,9.6235 -14.538605,11.92867 -1.258797,0.57024 -2.96711,1.22822 -2.811448,1.08287 z"
     id="path3861"
     inkscape:connector-curvature="0"
     transform="scale(0.8,0.8)" />
  <path
     style="fill:#ffff00"
     d="m 51.161499,135.79611 c -4.9724,-3.45633 -9.094345,-7.77284 -12.37091,-12.95484 -1.496888,-2.36739 -2.9572,-5.22143 -3.9875,-7.7932 -1.543332,-3.85237 -2.492675,-7.89386 -2.851699,-12.14009 -0.101638,-1.2021 -0.142254,-4.938527 -0.05786,-5.322774 0.03707,-0.168758 0.06509,-0.190263 0.247904,-0.190263 0.195606,0 0.203865,0.0084 0.16197,0.164791 -0.07381,0.275535 -0.04904,4.293786 0.03223,5.228396 0.291885,3.35658 0.836825,6.02417 1.899547,9.29866 1.482878,4.56909 3.807395,9.0439 6.760388,13.01409 2.923129,3.93004 6.544448,7.45292 10.572339,10.28494 l 0.552375,0.38838 0,0.31573 c 0,0.17365 -0.02022,0.31448 -0.04494,0.31294 -0.02472,-0.002 -0.435949,-0.27458 -0.913845,-0.60676 z"
     id="path3863"
     inkscape:connector-curvature="0"
     transform="scale(0.8,0.8)" />
  <path
     style="fill:#ffff00"
     d="m 72.974612,143.27926 c -6.463249,-0.41387 -12.954341,-2.37842 -18.809293,-5.69268 -1.686651,-0.95475 -1.954695,-1.15273 -1.90024,-1.4035 0.03411,-0.15709 0.257264,-0.0615 1.121224,0.48018 2.387197,1.49674 6.152791,3.31773 8.716587,4.2152 2.349151,0.82234 5.898589,1.70644 6.743883,1.67979 0.197751,-0.006 -0.04494,-0.0801 -0.539318,-0.16425 -3.228858,-0.5493 -7.753243,-2.07661 -11.061884,-3.73421 -6.419569,-3.21615 -12.583683,-8.54707 -16.818307,-14.54499 -4.460267,-6.31752 -7.302746,-13.74981 -7.952571,-20.79373 -0.178058,-1.93011 -0.148653,-5.335995 0.0629,-7.285984 0.765599,-7.056777 3.440017,-13.625893 7.890117,-19.380336 1.2329,-1.594265 4.308317,-4.689459 5.947446,-5.985688 3.82003,-3.020896 8.670759,-5.484449 12.981218,-6.592806 0.737379,-0.189603 1.232826,-0.349012 1.100993,-0.354239 -0.131834,-0.0052 -0.805982,0.147363 -1.498108,0.339092 -5.181572,1.435371 -9.816817,3.982904 -14.375428,7.900744 -0.845709,0.726834 -0.825389,0.298986 0.02356,-0.496022 3.06546,-2.870694 8.220733,-5.821165 12.67399,-7.253587 5.108816,-1.643288 11.108499,-2.008423 16.898653,-1.028435 4.955821,0.838776 10.393311,3.175703 14.614073,6.280842 5.955074,4.381042 10.0966,10.672189 11.636851,17.676853 0.13045,0.59325 0.26482,1.199984 0.29861,1.348296 0.0469,0.205892 0.008,0.26966 -0.16416,0.26966 -0.18784,0 -0.26035,-0.175419 -0.43349,-1.048676 -1.521631,-7.674635 -6.294305,-14.624236 -13.068158,-19.02884 -4.821778,-3.135295 -10.018704,-4.903778 -15.999789,-5.444635 -1.491558,-0.134877 -6.36033,-0.150414 -7.430614,-0.02371 -0.362542,0.04292 1.14755,0.07803 3.355761,0.07803 4.114805,0 5.00005,0.06477 7.550462,0.552405 6.844883,1.308741 12.755923,4.363348 17.374301,8.978396 5.603787,5.599746 8.636307,12.925709 8.631027,20.850821 -0.004,5.533646 -1.199758,9.014767 -4.521636,13.160037 -1.213673,1.51451 -4.10394,4.41493 -5.543827,5.5633 -2.929494,2.3364 -5.790035,3.87513 -8.752336,4.70802 -6.004555,1.68825 -12.924696,0.12768 -17.685418,-3.98827 -2.703397,-2.33725 -4.627297,-5.48273 -5.467592,-8.93922 -0.225877,-0.92913 -0.265824,-1.4238 -0.262696,-3.25303 0.0033,-1.947939 0.03435,-2.270978 0.319701,-3.329073 1.12529,-4.172661 4.272693,-7.743742 8.463066,-9.602295 1.407079,-0.62408 2.364051,-0.841235 3.730103,-0.846432 1.176186,-0.0045 1.300464,0.01851 1.902028,0.351689 1.26994,0.703371 1.613767,1.647306 1.04921,2.880464 -0.511082,1.116348 -1.060238,1.768605 -4.085766,4.852842 -3.45254,3.519532 -3.570716,3.700753 -3.640371,5.582465 -0.09724,2.62684 0.840949,4.69039 2.875569,6.32483 2.094064,1.6822 4.443275,2.47253 7.387429,2.48531 3.113833,0.0135 6.031021,-0.91556 8.92593,-2.84278 2.868343,-1.90953 5.570159,-5.25863 6.557572,-8.128601 1.066551,-3.099985 1.001939,-9.387012 -0.131691,-12.814167 -0.401557,-1.213976 -1.732186,-3.781341 -2.542412,-4.90543 -2.650766,-3.677609 -6.54989,-6.584858 -11.286354,-8.415285 -3.048307,-1.178032 -4.995574,-1.41882 -10.067283,-1.24486 -6.060889,0.207887 -7.455576,0.503881 -11.278834,2.393708 -5.429693,2.683884 -9.392333,6.208899 -12.116557,10.778435 -2.770389,4.646968 -3.9988,9.39013 -4.004044,15.46047 -0.0084,9.73096 3.710155,18.61405 10.641678,25.42139 5.268655,5.17426 11.46733,8.14355 19.154729,9.17548 2.245229,0.30139 9.041728,0.30533 11.283574,0.007 6.711632,-0.89453 11.804655,-2.63745 16.281606,-5.57185 11.069952,-7.25576 18.175352,-19.09965 19.609582,-32.686942 0.2233,-2.115516 0.19362,-6.815483 -0.0564,-8.928722 -1.04234,-8.810313 -4.09133,-16.387113 -9.11934,-22.661653 C 104.17138,59.676974 96.941127,53.086057 89.640507,47.773936 84.412575,43.969958 78.955985,40.555545 68.427303,34.499957 61.792152,30.68374 59.944385,29.579088 57.609775,28.032909 c -1.897151,-1.256456 -4.069465,-2.974411 -4.20383,-3.32456 -0.06481,-0.168893 0.533791,-0.187743 5.961939,-0.187743 l 6.033983,0 3.280485,1.957318 c 7.930181,4.731581 18.240016,11.235885 22.995581,14.507531 17.990057,12.376468 25.377107,20.196034 29.903507,31.654367 1.72651,4.370561 2.95701,9.33639 3.54888,14.321909 0.29917,2.51997 0.36218,7.882421 0.12182,10.366904 -1.31499,13.592395 -7.48375,25.322795 -17.93451,34.103915 -7.406253,6.22302 -16.527776,10.15871 -25.946677,11.19528 -3.353061,0.36902 -5.487695,0.37014 -11.325694,0.006 -0.831997,-0.0519 -0.833484,-0.0515 -0.179772,0.0539 2.302989,0.37132 8.236472,0.43666 11.220246,0.12357 8.762419,-0.91944 17.168795,-4.26132 24.344367,-9.6779 3.62447,-2.73598 7.07944,-6.16558 9.88567,-9.81309 5.3066,-6.89747 8.74499,-15.29307 9.87172,-24.104064 0.14771,-1.155106 0.24728,-1.587994 0.36526,-1.587994 0.19887,0 0.2082,-0.206987 -0.0852,1.888545 -0.87333,6.237983 -2.50024,11.413553 -5.28345,16.807843 -4.18814,8.11724 -10.11696,14.57764 -17.83967,19.43921 -1.83738,1.15666 -5.870123,3.18703 -7.969933,4.01264 -7.105285,2.79367 -14.23899,3.96132 -21.399915,3.50277 z M 62.075327,63.535115 c 0.564725,-0.0991 0.742933,-0.160592 0.479394,-0.165418 -0.230708,-0.0042 -0.743061,0.06533 -1.138561,0.154579 -0.924451,0.208603 -0.506916,0.215467 0.659167,0.01083 l 0,5e-6 z"
     id="path3865"
     inkscape:connector-curvature="0"
     transform="scale(0.8,0.8)" />
  <path
     style="fill:#ffff00"
     d=""
     id="path3867"
     inkscape:connector-curvature="0"
     transform="scale(0.8,0.8)" />
  <path
     style="fill:#ffff00"
     d="m 31.993327,96.855379 c 0,-0.293249 0.08281,-1.169642 0.184023,-1.947539 1.061932,-8.161765 4.59259,-15.526472 10.284154,-21.452031 1.112428,-1.158162 1.343364,-1.348379 1.375347,-1.132837 0.02815,0.189746 -0.28209,0.603383 -1.159828,1.546354 -5.689618,6.112461 -9.088644,13.23765 -10.148567,21.273875 -0.09657,0.732189 -0.175584,1.536927 -0.175584,1.788306 0,0.32637 -0.0514,0.457052 -0.179772,0.457052 -0.132859,0 -0.179773,-0.139141 -0.179773,-0.53318 z"
     id="path3869"
     inkscape:connector-curvature="0"
     transform="scale(0.8,0.8)" />
  <path
     style="fill:#ffff00"
     d="m 75.61822,118.22913 c -3.062512,-0.14551 -5.519041,-0.81534 -8.558807,-2.33375 -1.932008,-0.96507 -3.221493,-1.87435 -4.568939,-3.2218 -2.272269,-2.27227 -3.720225,-5.00064 -4.367566,-8.22977 -1.411835,-7.042645 1.591483,-13.648929 7.477423,-16.4478 1.936927,-0.921043 3.444551,-1.307994 5.104096,-1.310029 1.798165,-0.0022 3.232007,0.64584 3.810162,1.722055 0.243651,0.453546 0.277931,0.65501 0.234509,1.378187 -0.06646,1.106934 -0.474835,1.873368 -1.603772,3.009962 -0.710402,0.71522 -2.379951,1.955705 -2.632154,1.955705 -0.03792,0 0.426438,-0.525836 1.031917,-1.168524 2.265956,-2.40521 3.023718,-3.964162 2.458317,-5.057526 -0.278733,-0.53901 -1.088931,-1.155152 -1.822292,-1.385823 -1.964298,-0.617847 -5.50105,0.48793 -8.2582,2.581953 -2.785886,2.115849 -4.551843,4.687677 -5.414934,7.885968 -0.281583,1.04344 -0.313103,1.373774 -0.316424,3.316152 -0.0031,1.83845 0.03627,2.32171 0.266653,3.26989 0.523569,2.15478 1.240608,3.79315 2.423618,5.53776 2.725648,4.01957 6.795508,6.66302 12.039799,7.82006 1.623798,0.35826 5.646327,0.38726 7.300009,0.0526 3.446627,-0.69743 7.123543,-2.50143 10.222163,-5.01528 1.439101,-1.16752 2.13387,-1.82189 3.794213,-3.57363 3.87543,-4.08876 5.631593,-7.36062 6.192169,-11.536504 0.3003,-2.236982 0.25991,-6.534642 -0.0773,-8.220455 -0.0659,-0.329736 -0.0429,-0.379263 0.17655,-0.379263 0.28595,0 0.30743,0.06764 0.49127,1.547127 0.16157,1.300264 0.16129,4.939345 -4.8e-4,6.246177 -0.69051,5.577938 -3.081898,9.934138 -7.856629,14.311818 -3.943178,3.61528 -7.686754,5.76291 -11.705416,6.71523 -2.166053,0.51329 -3.546393,0.63844 -5.839986,0.52947 l -9e-6,0 z"
     id="path3871"
     inkscape:connector-curvature="0"
     transform="scale(0.8,0.8)" />
  <path
     style="fill:#ffff00"
     d="m 75.551872,109.57655 c -1.762959,-0.101 -3.201144,-0.49685 -4.779883,-1.31563 -0.994544,-0.5158 -1.703356,-1.01963 -2.438632,-1.73342 -1.15627,-1.12247 -1.81658,-2.35156 -2.13003,-3.96478 -0.104628,-0.53848 -0.115061,-0.67923 -0.113067,-1.52542 0.0025,-1.045227 0.04579,-1.299834 0.323447,-1.90079 0.212949,-0.460902 0.841965,-1.388351 0.90134,-1.328976 0.0102,0.0102 -0.06147,0.149972 -0.159262,0.310597 -0.373524,0.613493 -0.672505,1.393499 -0.827172,2.157989 -0.116868,0.57767 -0.106647,1.75379 0.02048,2.35622 0.228747,1.084 0.665624,2.04502 1.338693,2.9448 1.225597,1.6384 3.090608,2.87428 5.27354,3.49459 1.877214,0.53345 4.002541,0.56856 6.105066,0.10086 3.083158,-0.68583 6.468899,-2.65285 8.889878,-5.16478 2.28747,-2.3734 3.739655,-5.168058 4.33682,-8.346004 l 0.08073,-0.429594 -0.02219,0.317797 c -0.04794,0.686758 -0.273554,1.95493 -0.467372,2.627118 -0.398883,1.38338 -1.491378,3.379353 -2.620786,4.788133 -1.926804,2.40343 -4.294175,4.2095 -7.08162,5.40257 -0.61104,0.26154 -1.814466,0.65999 -2.477435,0.82029 -1.386863,0.33531 -2.789566,0.46652 -4.152542,0.38843 l 0,0 z"
     id="path3873"
     inkscape:connector-curvature="0"
     transform="scale(0.8,0.8)" />
  <path
     style="fill:#ffff00"
     d=""
     id="path3875"
     inkscape:connector-curvature="0"
     transform="scale(0.8,0.8)" />
  <path
     style="fill:#ffff00"
     d="m 74.519617,143.39511 c -0.642688,-0.0112 -1.343802,-0.036 -1.558032,-0.055 -2.152789,-0.19108 -3.410645,-0.35191 -4.958736,-0.634 -5.26764,-0.95987 -10.171309,-2.82028 -14.801303,-5.6155 -0.40374,-0.24374 -0.804592,-0.48523 -0.890783,-0.53663 l -0.156711,-0.0935 -5.9e-4,-0.32386 c -4.58e-4,-0.25107 0.0078,-0.31887 0.03686,-0.30168 0.0206,0.0122 0.192507,0.12537 0.382017,0.25149 4.075066,2.71189 9.184437,4.93863 13.786259,6.00826 0.882171,0.20504 2.46356,0.48631 2.552162,0.45393 0.03977,-0.0145 0.03086,-0.0162 -0.663787,-0.1245 -1.405848,-0.21917 -3.486863,-0.75583 -5.397616,-1.39197 -8.042908,-2.6777 -15.316137,-7.80778 -20.845316,-14.70297 -0.80669,-1.00599 -1.732144,-2.27967 -2.565541,-3.5309 l -0.07947,-0.11932 0,-4.51755 0,-4.51756 1.873992,0.008 1.873993,0.008 0.248135,0.56929 c 1.519619,3.48635 3.645501,6.77429 6.189556,9.5729 0.829268,0.91225 2.265051,2.30097 3.192425,3.08779 4.13532,3.50857 9.045619,5.92849 14.306927,7.0508 1.582674,0.3376 3.483847,0.58786 5.647866,0.74344 0.379668,0.0273 1.315389,0.0388 3.161007,0.0389 2.638239,1.8e-4 2.871779,-0.007 4.17972,-0.12137 5.450508,-0.47822 10.560095,-1.8573 14.740291,-3.97839 0.264267,-0.13409 0.490595,-0.24846 0.502954,-0.25415 0.01236,-0.006 0.02212,1.92896 0.0217,4.29922 l -7.79e-4,4.30955 -0.59098,0.24591 c -1.693578,0.70469 -3.243025,1.26172 -4.845605,1.742 -4.785075,1.43405 -9.665299,2.09683 -14.599873,1.98279 -1.978257,-0.0457 -4.199391,-0.17874 -5.520707,-0.33064 -0.294231,-0.0338 -0.344798,-0.0358 -0.321787,-0.0128 0.02632,0.0263 0.341559,0.0648 1.071836,0.13068 3.187781,0.28779 6.478509,0.34798 9.063551,0.16578 4.600667,-0.32428 8.968748,-1.27133 13.279426,-2.87914 0.675326,-0.25188 1.829277,-0.71486 2.293675,-0.92024 l 0.17201,-0.0761 0,0.21853 0,0.21852 -0.112358,0.0457 c -1.514488,0.61649 -2.300956,0.90888 -3.692836,1.3729 -3.922651,1.30773 -7.863186,2.10875 -11.939917,2.4271 -0.671458,0.0524 -3.18939,0.12822 -3.715307,0.11183 -0.0824,-0.003 -0.675646,-0.0139 -1.318335,-0.0251 l 6e-6,0 z"
     id="path3877"
     inkscape:connector-curvature="0"
     transform="scale(0.8,0.8)" />
  <path
     style="fill:#ffff00"
     d="m 74.369807,143.39576 c -0.576772,-0.0112 -1.129574,-0.0291 -1.228449,-0.04 -0.09887,-0.0108 -0.415725,-0.0402 -0.70411,-0.0654 -3.788346,-0.33014 -7.051236,-0.99427 -10.44181,-2.12535 -3.145212,-1.04922 -5.901687,-2.32967 -8.869107,-4.11994 -0.444768,-0.26833 -0.845661,-0.50964 -0.890875,-0.53625 -0.08156,-0.048 -0.08221,-0.0509 -0.0824,-0.37224 -1.49e-4,-0.25141 0.0082,-0.31872 0.03726,-0.30087 0.0206,0.0127 0.266663,0.17305 0.546809,0.35645 4.398296,2.87946 9.725369,5.11993 14.456738,6.08026 0.576688,0.11705 1.678742,0.29445 1.699607,0.27358 0.01591,-0.0159 0.01706,-0.0157 -0.680894,-0.12555 -1.37786,-0.21689 -3.467499,-0.75791 -5.363225,-1.38858 -8.039721,-2.67466 -15.31991,-7.80952 -20.845491,-14.70273 -0.806528,-1.00615 -1.727592,-2.27116 -2.505592,-3.44123 l -0.139244,-0.20942 0,-4.51711 0,-4.51712 1.874164,0 1.874163,0 0.04553,0.11236 c 0.166585,0.41107 0.592022,1.33644 0.915672,1.99169 2.79634,5.6614 7.096381,10.49646 12.264027,13.78996 4.069008,2.59331 8.5116,4.21072 13.288215,4.83783 1.006416,0.13213 2.095301,0.23997 3.101082,0.30712 0.791927,0.0529 5.481645,0.0532 6.247109,5e-4 5.82709,-0.40155 11.085586,-1.73157 15.520395,-3.92552 0.420219,-0.20789 0.774147,-0.38295 0.786506,-0.38901 0.01236,-0.006 0.02229,1.92826 0.02208,4.29852 l -3.89e-4,4.30955 -0.666266,0.27671 c -3.579605,1.48661 -7.004453,2.47311 -10.733548,3.09171 -3.828441,0.63507 -7.602468,0.76858 -12.284482,0.43458 -0.675965,-0.0482 -1.862004,-0.1518 -2.08237,-0.18185 -0.07416,-0.0101 -0.127279,-0.0102 -0.118051,-2.7e-4 0.0258,0.0279 0.367804,0.0703 1.106802,0.13733 3.156288,0.28629 6.436125,0.34644 9.033589,0.16567 5.261977,-0.36622 10.427068,-1.60942 15.280697,-3.67794 l 0.449433,-0.19154 0.0089,0.20862 c 0.0049,0.11473 0.0031,0.21437 -0.0039,0.2214 -0.007,0.007 -0.280691,0.12083 -0.608121,0.25288 -3.597699,1.45086 -7.345386,2.50738 -10.982566,3.09611 -2.271812,0.36772 -4.115296,0.54082 -6.241752,0.5861 -1.408149,0.03 -1.479765,0.03 -3.086101,-0.001 l -3e-6,1e-5 z"
     id="path3879"
     inkscape:connector-curvature="0"
     transform="scale(0.8,0.8)" />
  <path
     style="fill:#ffff00"
     d="m 73.515885,134.68942 c -1.192045,-0.0324 -3.191556,-0.22513 -4.644133,-0.44765 -4.129215,-0.63254 -8.071361,-2.05185 -11.670258,-4.20171 -6.156213,-3.67751 -11.052681,-9.34218 -13.960197,-16.15039 l -0.106365,-0.24906 0.09219,0.009 c 0.08894,0.009 0.101451,0.03 0.354892,0.59363 0.673064,1.49691 1.444158,2.95007 2.376492,4.4786 1.455839,2.3868 2.907558,4.23055 4.790298,6.08389 1.449174,1.42655 2.831261,2.54777 4.749029,3.85267 1.481282,1.00789 3.81084,2.38787 5.254178,3.11245 1.351981,0.67872 3.239483,1.30301 5.243376,1.73425 7.496605,1.61326 17.516485,1.16162 24.103817,-1.08648 0.362141,-0.12359 0.665508,-0.214 0.674149,-0.20091 0.0086,0.0131 0.03381,0.0296 0.05591,0.0367 0.04021,0.0129 -1.023807,0.38001 -1.673137,0.57727 -2.938017,0.8925 -6.114053,1.49175 -9.303249,1.7553 -0.214229,0.0177 -0.551303,0.046 -0.749053,0.063 -0.334429,0.0286 -4.818382,0.06 -5.587942,0.0391 l 0,0 z"
     id="path3881"
     inkscape:connector-curvature="0"
     transform="scale(0.8,0.8)" />
  <path
     style="fill:#ffff00"
     d="m 125.37519,97.009489 c 0.28129,-3.861218 0.19525,-7.399009 -0.26853,-11.041053 C 124.34678,80.001062 122.52274,73.916061 119.8974,68.590388 115.35737,59.38063 107.86148,51.996309 91.913474,41.022976 89.949462,39.671599 86.934976,37.687414 84.129885,35.899688 l -2.300515,-1.466153 0.424839,-0.01754 0.42484,-0.01754 2.205259,1.420492 c 12.347229,7.953326 20.793222,14.391553 26.542272,20.232683 4.06564,4.130765 6.3386,7.287207 8.79183,12.209184 3.4888,6.999641 5.35748,14.151665 5.73832,21.962257 0.0967,1.983618 0.0174,5.503502 -0.15834,7.026125 -0.0362,0.313901 -0.0368,0.314602 -0.24994,0.314602 l -0.21364,0 0.0404,-0.554299 z"
     id="path3883"
     inkscape:connector-curvature="0"
     transform="scale(0.8,0.8)" />
  <path
     style="fill:#ffff00"
     d="m 116.98355,97.517209 c 0.0158,-0.02562 0.089,-0.706513 0.16247,-1.513088 0.11104,-1.218082 0.13417,-1.877638 0.13655,-3.893444 0.003,-2.529073 -0.0547,-3.52807 -0.32523,-5.632703 -0.81126,-6.311232 -2.97604,-12.433915 -6.37743,-18.037397 -1.04006,-1.71341 -2.13547,-3.181196 -3.68862,-4.942543 C 101.69766,57.608222 92.588135,49.87744 84.422936,44.430308 81.969759,42.793754 80.649015,42.00589 76.183344,39.51513 74.502468,38.577609 71.785436,37.050719 70.145496,36.122041 l -2.981709,-1.688506 0.446067,-0.01743 0.446067,-0.01743 2.056248,1.179311 c 11.513883,6.603506 18.173126,11.004006 24.737596,16.346874 11.391735,9.271813 16.887585,16.121209 19.920205,24.826251 0.64156,1.841587 1.28591,4.144641 1.707,6.101267 0.93704,4.353937 1.18871,8.87969 0.75145,13.51293 -0.0999,1.058755 -0.12456,1.198486 -0.21134,1.198486 -0.0343,0 -0.0494,-0.02096 -0.0335,-0.04658 l 0,0 z"
     id="path3885"
     inkscape:connector-curvature="0"
     transform="scale(0.8,0.8)" />
  <path
     style="fill:#ffff00"
     d="m 64.498105,32.884711 c -6.96039,-4.082495 -10.099654,-6.155729 -11.641483,-7.688277 -0.928872,-0.923279 -1.179241,-1.691863 -0.939838,-2.885116 0.276255,-1.376937 1.406673,-2.747825 2.698743,-3.272841 0.464091,-0.188577 1.148972,-0.285523 1.448426,-0.205027 1.045203,0.280959 6.032245,3.021722 12.44908,6.841724 3.9688,2.362665 13.747195,8.403012 13.990185,8.642072 0.07653,0.07529 0.03631,0.08633 -0.314745,0.08633 l -0.402492,0 -2.381848,-1.488591 C 70.595639,27.409908 60.393407,21.338964 57.786583,20.051232 56.870194,19.59855 56.466466,19.482421 55.809081,19.482421 c -1.375271,0 -2.608744,0.818623 -3.137528,2.082295 -0.275805,0.659112 -0.268276,1.586254 0.01796,2.211477 0.477129,1.042187 1.731974,2.227789 4.018432,3.796689 1.769806,1.214389 5.332386,3.379958 9.168418,5.573163 1.054668,0.602994 1.957064,1.132617 2.005324,1.17694 0.07417,0.06811 0.01852,0.08001 -0.359545,0.07683 l -0.447293,-0.0038 -2.576745,-1.511345 0,-10e-7 z"
     id="path3887"
     inkscape:connector-curvature="0"
     transform="scale(0.8,0.8)" />
  <path
     style="fill:#ffff00"
     d="m 36.075108,82.186243 c 0.08992,-0.17627 0.285678,-0.541595 0.444173,-0.828919 1.376196,-2.494802 3.043282,-4.839068 4.95684,-6.970339 0.869823,-0.968787 1.904323,-2.005376 2.876515,-2.882325 1.402246,-1.264871 3.06457,-2.532647 4.615518,-3.520037 0.194601,-0.123891 0.205673,-0.129412 0.253276,-0.126308 l 0.04978,0.0032 -0.110268,0.06807 c -0.19418,0.119863 -0.673411,0.432108 -0.973616,0.634365 -1.468129,0.989122 -2.699855,1.952168 -3.70233,2.89473 -0.271351,0.255133 -0.365377,0.351658 -0.436219,0.44781 -0.116423,0.15802 -0.131898,0.223061 -0.128073,0.5383 l 0.0029,0.234998 0.217587,-0.205745 c 0.655361,-0.619693 1.079626,-0.998822 1.636227,-1.462154 1.261714,-1.050291 2.718528,-2.08402 4.217179,-2.992432 0.148112,-0.08978 0.277367,-0.163235 0.287233,-0.163235 0.0099,0 -0.0748,0.05634 -0.188153,0.125196 -3.636018,2.208805 -6.87037,5.05437 -9.550352,8.402347 -1.392592,1.739701 -2.694233,3.704139 -3.723627,5.619703 -0.06319,0.117595 -0.121261,0.213389 -0.130503,0.215289 -0.0092,0.0019 -0.01665,6.2e-4 -0.01665,-0.0028 0,-0.01042 0.204881,-0.385821 0.379024,-0.694473 1.220106,-2.162518 2.679488,-4.245614 4.345199,-6.202255 0.377107,-0.442972 0.695245,-0.801782 1.202303,-1.356007 0.502746,-0.549513 0.571644,-0.626189 0.737703,-0.820975 0.372844,-0.437344 0.528565,-0.694137 0.503134,-0.829697 -0.01946,-0.103737 -0.101788,-0.09131 -0.26588,0.04013 -0.262064,0.209914 -1.149046,1.114669 -1.859862,1.897128 -2.070023,2.27866 -3.827511,4.7484 -5.280127,7.419986 -0.106125,0.19518 -0.215098,0.398967 -0.242161,0.45286 l -0.04921,0.09799 -0.04254,0 -0.04254,0 0.01756,-0.03443 0,0 z"
     id="path3889"
     inkscape:connector-curvature="0"
     transform="scale(0.8,0.8)" />
  <path
     style="fill:#ffff00"
     d="m 42.933089,87.298988 c 0,-0.01804 0.282031,-0.611173 0.465387,-0.978741 1.529294,-3.065713 3.595234,-5.755366 6.192452,-8.061968 1.42125,-1.262218 3.098266,-2.465674 4.756012,-3.412997 0.122541,-0.07003 0.226377,-0.129376 0.230746,-0.131888 0.0044,-0.0025 0.0079,0.02589 0.0079,0.06311 l 0,0.06768 -0.113877,0.06183 c -0.06263,0.03401 -0.259269,0.14636 -0.43697,0.249672 -2.43748,1.417111 -4.625022,3.214847 -6.489359,5.332996 -1.698519,1.929756 -3.120587,4.112693 -4.242264,6.512058 l -0.142318,0.304431 -0.113877,1.27e-4 c -0.06263,6.5e-5 -0.113877,-0.0028 -0.113877,-0.0063 z"
     id="path3891"
     inkscape:connector-curvature="0"
     transform="scale(0.8,0.8)" />
  <path
     style="fill:#ffff00"
     d=""
     id="path3893"
     inkscape:connector-curvature="0"
     transform="scale(0.8,0.8)" />
  <path
     style="fill:#ffff00"
     d=""
     id="path3897"
     inkscape:connector-curvature="0"
     transform="scale(0.8,0.8)" />
  <path
     style="fill:#ffff00"
     d="m 54.592425,74.768689 c 0.0058,-0.04964 0.04703,-0.08029 0.303314,-0.225454 0.297775,-0.168661 2.086488,-1.075165 2.198702,-1.114283 l 0.05992,-0.02089 -0.0064,0.0961 -0.0064,0.0961 -0.307204,0.133334 c -0.587825,0.255132 -1.62164,0.756186 -2.056366,0.99665 -0.09535,0.05274 -0.177606,0.0959 -0.182789,0.0959 -0.0052,0 -0.0064,-0.02585 -0.0027,-0.05745 z"
     id="path3901"
     inkscape:connector-curvature="0"
     transform="scale(0.8,0.8)" />
  <path
     style="fill:#ffff00"
     d="m 40.807117,105.32932 c -0.02651,-0.11447 -0.142014,-0.98501 -0.200291,-1.50953 -0.155954,-1.4037 -0.216245,-2.49589 -0.216947,-3.930089 -7.45e-4,-1.52017 0.0495,-2.50148 0.196365,-3.834746 0.319674,-2.902155 1.07447,-5.802443 2.166902,-8.326271 l 0.178825,-0.413136 0.107943,-0.0027 c 0.05937,-0.0015 0.107944,-6.64e-4 0.107944,0.0019 0,0.0025 -0.07242,0.170607 -0.160939,0.373498 -2.138991,4.902856 -2.928854,10.52507 -2.273767,16.184571 0.04634,0.40035 0.181143,1.37045 0.20196,1.45339 0.01101,0.0439 0.0052,0.0509 -0.0421,0.0509 -0.0395,0 -0.05795,-0.0134 -0.0659,-0.0477 z"
     id="path3903"
     inkscape:connector-curvature="0"
     transform="scale(0.8,0.8)" />
  <path
     style="fill:#ffff00"
     d="m 43.296588,113.67199 c -0.01474,-0.0178 -0.05782,-0.0323 -0.09573,-0.0323 -0.06721,0 -0.07107,-0.005 -0.154642,-0.20657 -0.76125,-1.83472 -1.474487,-4.17166 -1.89942,-6.22351 -0.123596,-0.59681 -0.329442,-1.72714 -0.329442,-1.80903 0,-0.013 0.0234,-0.0236 0.05201,-0.0236 0.04224,0 0.05412,0.0129 0.06328,0.0688 0.442842,2.7051 1.26506,5.54991 2.324445,8.04241 0.08196,0.19284 0.09417,0.2496 0.03951,0.18374 z"
     id="path3905"
     inkscape:connector-curvature="0"
     transform="scale(0.8,0.8)" />
  <path
     style="fill:#ffff00"
     d="m 51.312919,135.20176 c -1.517455,-1.08729 -2.899071,-2.20204 -4.258475,-3.43594 -0.585621,-0.53155 -1.045494,-0.9707 -1.655394,-1.58081 -0.512797,-0.51298 -0.858841,-0.87247 -1.302996,-1.35363 -0.239459,-0.25942 -0.659772,-0.72592 -0.671683,-0.7455 -0.0027,-0.004 -6.51e-4,-0.007 0.0059,-0.007 0.0064,0 0.06113,0.0574 0.15259,0.1601 2.313695,2.59716 4.915998,4.93303 7.710157,6.92077 0.07501,0.0534 0.136388,0.098 0.136388,0.0992 0,0.001 -0.0077,0.002 -0.01721,0.002 -0.01308,-3.3e-4 -0.03692,-0.0146 -0.09931,-0.0593 z"
     id="path3907"
     inkscape:connector-curvature="0"
     transform="scale(0.8,0.8)" />
  <path
     style="fill:#ffff00"
     d="m 50.075856,135.07697 c -2.429563,-1.78994 -4.579965,-3.73426 -6.590234,-5.95864 -0.290527,-0.32147 -0.882061,-0.99751 -0.903396,-1.03245 -0.003,-0.005 0.0032,-0.007 0.02511,-0.007 l 0.02915,0 0.08901,0.1046 c 0.263717,0.30993 0.717597,0.82119 1.0474,1.17983 0.86555,0.94122 1.8197,1.8908 2.765126,2.75189 1.102935,1.00455 2.250991,1.94905 3.464749,2.85042 0.13067,0.097 0.272142,0.20123 0.314383,0.23153 0.04224,0.0303 0.07906,0.0571 0.08183,0.0595 0.0028,0.002 -0.01273,0.004 -0.03443,0.004 l -0.03946,-4.3e-4 -0.249245,-0.18362 0,-1e-5 z"
     id="path3911"
     inkscape:connector-curvature="0"
     transform="scale(0.8,0.8)" />
  <path
     style="fill:#ffff00"
     d=""
     id="path3913"
     inkscape:connector-curvature="0"
     transform="scale(0.8,0.8)" />
  <path
     style="fill:#ffff00"
     d="m 48.63181,133.90096 c -0.862227,-0.69328 -1.700408,-1.42 -2.50576,-2.17255 -0.917449,-0.8573 -1.879873,-1.83863 -2.689528,-2.74238 -0.07699,-0.0859 -0.153923,-0.17163 -0.170962,-0.19043 l -0.03098,-0.0342 0.39593,3.3e-4 0.395931,3.3e-4 0.111328,0.12136 c 0.06123,0.0667 0.185153,0.19975 0.275384,0.29556 1.592454,1.69105 3.307961,3.26329 5.119147,4.69164 0.110645,0.0873 0.209774,0.16518 0.220289,0.17315 l 0.01912,0.0145 -0.472241,-1e-4 -0.472242,-1e-4 -0.195412,-0.15712 0,-1e-5 z"
     id="path3915"
     inkscape:connector-curvature="0"
     transform="scale(0.8,0.8)" />
  <path
     style="fill:#ffff00"
     d="m 48.631622,133.90097 c -1.135084,-0.91181 -2.268787,-1.91941 -3.284869,-2.91947 -0.607836,-0.59826 -1.088958,-1.09625 -1.646707,-1.70446 -0.07191,-0.0784 -0.199985,-0.21992 -0.284606,-0.31445 -0.08462,-0.0945 -0.160099,-0.17847 -0.167728,-0.18652 l -0.01387,-0.0147 0.3963,2.3e-4 0.396301,2.2e-4 0.06641,0.0725 c 0.649588,0.70952 1.510227,1.58027 2.283292,2.31012 1.045271,0.98685 2.10346,1.89811 3.265025,2.81169 l 0.129792,0.10208 -0.471867,-1e-4 -0.471867,-1e-4 -0.1956,-0.15712 0,0 z"
     id="path3917"
     inkscape:connector-curvature="0"
     transform="scale(0.8,0.8)" />
  <path
     style="fill:#ffff00"
     d="m 48.631622,133.90107 c -0.107539,-0.0865 -0.219143,-0.17667 -0.248009,-0.20043 -0.02887,-0.0238 -0.122797,-0.10107 -0.208735,-0.1718 -0.943836,-0.77689 -1.938958,-1.67287 -2.818359,-2.53758 -0.704603,-0.69282 -1.326528,-1.34278 -1.943045,-2.03062 -0.08569,-0.0956 -0.161153,-0.17954 -0.167692,-0.18653 l -0.01189,-0.0127 0.396274,1.4e-4 0.396274,1.4e-4 0.115841,0.12584 c 0.386915,0.42029 0.741564,0.78821 1.249237,1.296 0.39408,0.39417 0.497958,0.49621 0.775547,0.76184 0.856371,0.81948 1.794881,1.64979 2.714426,2.40149 0.263902,0.21574 0.661837,0.53407 0.853925,0.6831 l 0.0365,0.0283 -0.472386,0 -0.472385,0 -0.195525,-0.15722 z"
     id="path3919"
     inkscape:connector-curvature="0"
     transform="scale(0.8,0.8)" />
  <path
     style="fill:#ffff00"
     d="m 71.680832,117.72935 c -2.330764,-0.6085 -4.592827,-1.59173 -6.635155,-2.88403 -3.018116,-1.90975 -5.330613,-4.91252 -6.467683,-8.39826 -0.574923,-1.76246 -0.820385,-3.2239 -0.855535,-5.09375 -0.02464,-1.3109 0.06714,-2.33097 0.320534,-3.562499 0.848246,-4.122534 3.175908,-7.433791 6.590964,-9.376095 2.097165,-1.192757 4.555412,-1.897732 6.327285,-1.814535 1.587375,0.07453 2.735315,0.562306 3.420364,1.453351 0.309254,0.402247 0.517976,1.009256 0.517976,1.506383 0,1.061643 -0.592893,2.215634 -1.707079,3.322611 -0.638811,0.634678 -1.302126,1.134453 -2.49096,1.876817 -0.323766,0.202174 -0.74366,0.479099 -0.9331,0.615388 -0.189439,0.136289 -0.349807,0.242425 -0.356375,0.235858 -0.0066,-0.0066 0.152967,-0.165579 0.354519,-0.353359 0.201553,-0.18778 0.658462,-0.628239 1.015353,-0.978797 0.356891,-0.350558 0.648892,-0.627407 0.648892,-0.615219 0,0.01219 -0.158203,0.19388 -0.351562,0.40376 -0.367294,0.398676 -0.585938,0.654795 -0.585938,0.686368 0,0.0311 0.193858,-0.04644 0.359375,-0.143739 0.437397,-0.257128 1.366285,-0.959838 1.95544,-1.479304 0.709967,-0.625988 1.374121,-1.444134 1.627321,-2.004634 0.212251,-0.469853 0.301089,-0.878525 0.327534,-1.506729 0.02428,-0.576824 -0.006,-0.741918 -0.211303,-1.151633 -0.346984,-0.692493 -0.984928,-1.190037 -1.931743,-1.506601 -0.533118,-0.178246 -0.995055,-0.250747 -1.725475,-0.270813 -1.659724,-0.0456 -3.160567,0.308665 -5.119899,1.208509 -4.328985,1.988133 -7.213836,6.027637 -7.871788,11.022446 -0.190858,1.448886 -0.16785,3.170946 0.06277,4.698096 0.208718,1.38211 0.601617,2.79883 1.122323,4.04687 1.303406,3.12405 3.794817,5.92408 6.76482,7.60281 2.021551,1.14264 4.232613,2.03898 6.140625,2.48935 0.292246,0.069 0.408745,0.10678 0.328125,0.10648 -0.06875,-3.2e-4 -0.357031,-0.0611 -0.640625,-0.1351 l 0,0 z"
     id="path3921"
     inkscape:connector-curvature="0"
     transform="scale(0.8,0.8)" />
  <path
     style="fill:#ffff00"
     d="m 71.116644,94.033505 c 0,-0.0024 0.04422,-0.05336 0.09826,-0.113174 0.151839,-0.168063 0.216623,-0.244632 0.216623,-0.256025 0,-0.0086 -0.02568,0.0121 -0.09626,0.07768 -0.03623,0.03366 -0.06717,0.05991 -0.06876,0.05832 -0.0016,-0.0016 0.06552,-0.07179 0.149115,-0.156013 0.286034,-0.288178 0.633182,-0.660427 0.902692,-0.967964 1.050383,-1.19859 1.62491,-2.150336 1.780862,-2.950134 0.05336,-0.273659 0.05543,-0.537488 0.0061,-0.782882 -0.05123,-0.255019 -0.177934,-0.517265 -0.360449,-0.746025 -0.0663,-0.0831 -0.246029,-0.264533 -0.335646,-0.338829 -0.272572,-0.225971 -0.648509,-0.453405 -0.949557,-0.574462 l -0.07396,-0.02974 0.04111,-0.0016 c 0.03997,-0.0016 0.0431,-6.79e-4 0.112629,0.03135 0.552625,0.254576 1.099235,0.691033 1.370645,1.094431 0.128263,0.190638 0.211443,0.401275 0.247601,0.627005 0.02991,0.186729 0.02673,0.412952 -0.0088,0.624242 -0.147331,0.876521 -0.831249,1.980949 -2.117544,3.419525 -0.131223,0.146757 -0.222238,0.245784 -0.565976,0.615798 -0.328389,0.353492 -0.348734,0.374988 -0.348734,0.368485 z"
     id="path3923"
     inkscape:connector-curvature="0"
     transform="scale(0.8,0.8)" />
  <path
     style="fill:#ffff00"
     d=""
     id="path3925"
     inkscape:connector-curvature="0"
     transform="scale(0.8,0.8)" />
  <path
     style="fill:#ffff00"
     d="m 70.534109,94.870114 c 0.0029,-0.0027 0.132031,-0.08513 0.286986,-0.183209 0.913317,-0.578101 1.470949,-0.980206 1.952819,-1.408166 0.221166,-0.196422 0.534795,-0.504054 0.709894,-0.696318 0.820094,-0.900489 1.293963,-1.807318 1.397183,-2.673748 0.02267,-0.190273 0.02525,-0.443598 0.006,-0.591097 -0.03124,-0.239679 -0.09091,-0.46308 -0.189952,-0.71125 l -0.01157,-0.029 0.01294,0 c 0.01143,0 0.01601,0.0079 0.03928,0.06767 0.124475,0.319748 0.180401,0.647325 0.172359,1.009561 -0.0072,0.325301 -0.05909,0.61637 -0.170176,0.954985 -0.214525,0.653919 -0.617537,1.304962 -1.21877,1.968853 -0.107828,0.119065 -0.425502,0.437015 -0.553842,0.554322 -0.544066,0.497295 -1.161871,0.960344 -1.872728,1.40362 -0.16113,0.100477 -0.556015,0.338656 -0.56147,0.338656 -0.0023,0 -0.0019,-0.0022 0.001,-0.0049 z"
     id="path3927"
     inkscape:connector-curvature="0"
     transform="scale(0.8,0.8)" />
  <path
     style="fill:#ffff00"
     d="m 69.448763,95.570678 c 0.01392,-0.0165 0.189177,-0.186254 0.389461,-0.377219 0.200284,-0.190964 0.524495,-0.50301 0.720468,-0.693434 0.692861,-0.673241 0.83729,-0.811467 0.842472,-0.806285 0.0048,0.0048 -0.192074,0.227604 -0.453545,0.513505 -0.204467,0.223571 -0.412681,0.467018 -0.442417,0.51728 -0.01753,0.02963 -0.0143,0.04094 0.01047,0.03662 0.05316,-0.0093 0.162206,-0.05437 0.269519,-0.111444 0.35381,-0.188187 1.256252,-0.857807 1.903111,-1.412128 0.545714,-0.467644 1.034586,-0.998958 1.404585,-1.526525 0.170524,-0.243144 0.293087,-0.458832 0.384931,-0.677412 0.172417,-0.410331 0.250814,-0.775525 0.28182,-1.312789 0.03249,-0.563015 0.0086,-0.776363 -0.120162,-1.07309 l -0.03056,-0.07043 0.03468,0 0.03468,0 0.02344,0.05662 c 0.08098,0.195595 0.149382,0.455729 0.180889,0.687915 0.01351,0.09958 0.01335,0.409747 -2.72e-4,0.531568 -0.03753,0.335567 -0.113887,0.634351 -0.247755,0.96951 -0.333434,0.834803 -1.014351,1.716357 -1.951802,2.526913 -0.474189,0.410001 -0.994465,0.780992 -1.894825,1.351132 -0.513635,0.325252 -0.715749,0.458197 -1.019228,0.670422 -0.202136,0.141355 -0.317562,0.218975 -0.33561,0.225688 -0.0054,0.002 0.0016,-0.0098 0.01565,-0.02642 l 0,0 z"
     id="path3929"
     inkscape:connector-curvature="0"
     transform="scale(0.8,0.8)" />
  <path
     style="fill:#ffff00"
     d="m 69.441941,95.577957 c 0.02214,-0.02754 0.116102,-0.119401 0.326781,-0.319461 0.291468,-0.276778 0.418873,-0.399218 0.795495,-0.7645 0.464717,-0.450723 0.676729,-0.655548 0.731959,-0.707148 0.02431,-0.02271 0.05719,-0.05364 0.07307,-0.06873 0.01588,-0.01509 0.03019,-0.02611 0.0318,-0.0245 0.0053,0.0053 -0.07669,0.09833 -0.422514,0.479792 -0.198703,0.219181 -0.328826,0.367872 -0.408508,0.466801 -0.06529,0.08106 -0.08337,0.10979 -0.07453,0.118433 0.01424,0.01391 0.126235,-0.02638 0.254682,-0.09161 0.35105,-0.1783 1.269896,-0.856433 1.939316,-1.431269 0.583142,-0.500748 1.106083,-1.078198 1.469661,-1.622851 0.171134,-0.256365 0.279514,-0.466093 0.379692,-0.73475 0.129653,-0.347703 0.192768,-0.680248 0.2207,-1.162837 0.03189,-0.55104 0.0088,-0.76148 -0.115933,-1.056517 l -0.03445,-0.08148 0.0348,0 0.0348,0 0.01782,0.04281 c 0.08551,0.205383 0.154406,0.464872 0.185173,0.697439 0.01194,0.09029 0.01638,0.319486 0.0084,0.433655 -0.07082,1.012024 -0.639814,2.063518 -1.683039,3.110215 -0.62743,0.629518 -1.217179,1.077802 -2.427454,1.845171 -0.489439,0.310327 -0.760101,0.488656 -1.035801,0.682449 -0.152618,0.107278 -0.305797,0.209607 -0.313765,0.209607 -0.0026,0 0.0027,-0.0093 0.01184,-0.02072 z"
     id="path3931"
     inkscape:connector-curvature="0"
     transform="scale(0.8,0.8)" />
  <path
     style="fill:#ffff00"
     d="m 69.421877,95.599379 c 0,-0.0067 0.16468,-0.168834 0.347673,-0.342255 0.299748,-0.28407 0.442044,-0.421248 1.031233,-0.994137 0.316541,-0.307784 0.424515,-0.411656 0.53125,-0.511067 0.06977,-0.06498 0.08504,-0.07761 0.08138,-0.0673 -0.004,0.01122 -0.149469,0.176258 -0.341126,0.386953 -0.376599,0.414008 -0.534935,0.597686 -0.571283,0.66272 -0.0084,0.01498 -0.009,0.01842 -0.0044,0.023 0.02003,0.01998 0.219296,-0.06418 0.378444,-0.159818 0.421749,-0.253459 1.226431,-0.858169 1.820312,-1.367947 0.474624,-0.40741 0.891864,-0.847217 1.250473,-1.318108 0.06121,-0.08037 0.165965,-0.227309 0.212418,-0.297946 l 0.03516,-0.05346 0.03223,-8e-5 c 0.01772,-4.3e-5 0.03223,9.24e-4 0.03223,0.0021 0,0.0039 -0.07374,0.11851 -0.128052,0.198944 -0.250951,0.371653 -0.545741,0.724646 -0.911778,1.091797 -0.508708,0.510257 -1.018857,0.920306 -1.768764,1.421703 -0.206348,0.137967 -0.271689,0.180235 -0.65366,0.422838 -0.565329,0.35906 -0.771364,0.495091 -1.09634,0.723839 -0.13362,0.09405 -0.265825,0.18162 -0.274207,0.18162 -0.0017,0 -0.0031,-0.0016 -0.0031,-0.0034 z"
     id="path3933"
     inkscape:connector-curvature="0"
     transform="scale(0.8,0.8)" />
  <path
     style="fill:#ffff00"
     d="m 69.421877,95.599248 c 0,-0.0068 0.158398,-0.162645 0.353515,-0.347913 0.306189,-0.290732 0.450157,-0.429533 1.03125,-0.99423 0.303065,-0.294513 0.425402,-0.412194 0.513672,-0.494119 0.0333,-0.03091 0.06711,-0.06233 0.07512,-0.06984 0.008,-0.0075 0.01573,-0.01249 0.01714,-0.01108 0.0051,0.0051 -0.105449,0.131211 -0.391553,0.446465 -0.390831,0.430653 -0.54247,0.611699 -0.526074,0.628095 0.01606,0.01606 0.155775,-0.03606 0.288257,-0.107524 0.39012,-0.21045 1.342871,-0.92243 1.988867,-1.486255 0.525734,-0.458861 1.037121,-1.029422 1.376367,-1.535631 l 0.04492,-0.06703 0.03223,-1.65e-4 c 0.01772,-9e-5 0.03223,7.86e-4 0.03223,0.0019 0,0.0086 -0.144075,0.225648 -0.224113,0.337675 -0.448148,0.627254 -1.079627,1.264234 -1.805184,1.820909 -0.362476,0.278106 -0.762088,0.55085 -1.416015,0.966461 -0.590294,0.375169 -0.806704,0.518025 -1.123047,0.741347 -0.07447,0.05257 -0.217119,0.148334 -0.244484,0.164125 -0.01938,0.01118 -0.02309,0.01227 -0.02309,0.0068 z"
     id="path3935"
     inkscape:connector-curvature="0"
     transform="scale(0.8,0.8)" />
  <path
     style="fill:#ffff00"
     d=""
     id="path3937"
     inkscape:connector-curvature="0"
     transform="scale(0.8,0.8)" />
  <path
     style="fill:#ffff00"
     d="m 69.421877,95.599181 c 0,-0.0063 0.152057,-0.15663 0.316406,-0.312789 0.337871,-0.321035 0.536596,-0.512631 1.144531,-1.103469 0.270441,-0.262835 0.403813,-0.390267 0.516561,-0.493552 0.0059,-0.0054 0.01184,-0.0087 0.01323,-0.0073 0.0051,0.0051 -0.107085,0.132842 -0.408668,0.465651 -0.37248,0.411045 -0.521341,0.588741 -0.509396,0.608069 0.01146,0.01855 0.157889,-0.03606 0.292569,-0.109106 0.406442,-0.220453 1.440408,-0.998193 2.052734,-1.54405 0.207683,-0.185138 0.459515,-0.435332 0.658415,-0.654132 0.240458,-0.264517 0.481441,-0.569238 0.654085,-0.827088 l 0.04102,-0.06126 0.03223,-1.62e-4 c 0.01772,-9e-5 0.03223,8.07e-4 0.03223,0.002 0,0.0095 -0.158408,0.246916 -0.241445,0.361891 -0.390585,0.540813 -0.923416,1.095837 -1.526133,1.5897 -0.422747,0.346396 -0.882059,0.667558 -1.6875,1.179939 -0.599332,0.381265 -0.764778,0.490465 -1.111328,0.733518 -0.134742,0.0945 -0.257929,0.175766 -0.266438,0.175766 -0.0017,0 -0.0031,-0.0016 -0.0031,-0.0036 z"
     id="path3939"
     inkscape:connector-curvature="0"
     transform="scale(0.8,0.8)" />
  <path
     style="fill:#ffff00"
     d="m 69.421877,95.59902 c 0,-0.0064 0.144823,-0.149463 0.320312,-0.316522 0.303929,-0.28933 0.440365,-0.420611 0.825963,-0.794758 0.517184,-0.501824 0.527934,-0.51223 0.623645,-0.603663 0.07017,-0.06703 0.139583,-0.132162 0.205607,-0.192916 0.007,-0.0064 0.0138,-0.01047 0.01522,-0.009 0.0048,0.0048 -0.09121,0.114895 -0.332621,0.381651 -0.443214,0.489748 -0.583905,0.655097 -0.583905,0.686243 0,0.0078 0.002,0.0091 0.01363,0.0091 0.04972,0 0.227276,-0.08013 0.377098,-0.170183 0.43662,-0.262435 1.311996,-0.925534 1.89248,-1.433556 0.332619,-0.291097 0.683351,-0.65087 0.957516,-0.982199 0.154361,-0.186545 0.311777,-0.396134 0.423261,-0.563546 l 0.03312,-0.04973 0.03231,0 c 0.01777,0 0.03231,8.98e-4 0.03231,0.002 0,0.0073 -0.118507,0.188054 -0.194604,0.296833 -0.402232,0.574986 -0.988688,1.185759 -1.64524,1.713459 -0.410157,0.329662 -0.835557,0.624964 -1.621093,1.125324 -0.56189,0.357905 -0.73635,0.47244 -1,0.65651 -0.230419,0.160869 -0.361833,0.248848 -0.371708,0.248848 -0.0018,0 -0.0033,-0.0017 -0.0033,-0.0038 z"
     id="path3941"
     inkscape:connector-curvature="0"
     transform="scale(0.8,0.8)" />
  <path
     style="fill:#ffff00"
     d="m 69.421877,95.598749 c 0,-0.0068 0.146874,-0.15131 0.367183,-0.36124 0.343614,-0.327426 0.351418,-0.334952 1.044926,-1.007612 0.347099,-0.336665 0.358256,-0.347407 0.459008,-0.441911 0.104515,-0.09804 0.116704,-0.108797 0.11976,-0.10574 0.0043,0.0043 -0.107222,0.133173 -0.275999,0.319018 -0.466243,0.513393 -0.64066,0.717557 -0.64066,0.749923 0,0.0064 0.0026,0.0079 0.01363,0.0079 0.04839,0 0.229777,-0.08159 0.373094,-0.167822 0.460028,-0.276793 1.421248,-1.009067 1.967072,-1.498549 0.499987,-0.448377 0.971796,-0.981006 1.296397,-1.463512 l 0.04664,-0.06934 0.03244,0 c 0.01784,0 0.03244,0.0011 0.03244,0.0025 0,0.0074 -0.143136,0.224282 -0.212365,0.321712 -0.417882,0.588107 -1.003461,1.192202 -1.666541,1.719236 -0.404913,0.321836 -0.810752,0.602743 -1.56836,1.085561 -0.572543,0.364878 -0.771703,0.495884 -1.052734,0.692481 -0.127543,0.08922 -0.299739,0.205302 -0.319142,0.215136 -0.01467,0.0074 -0.0168,0.0077 -0.0168,0.0023 z"
     id="path3943"
     inkscape:connector-curvature="0"
     transform="scale(0.8,0.8)" />
  <path
     style="fill:#ffff00"
     d=""
     id="path3945"
     inkscape:connector-curvature="0"
     transform="scale(0.8,0.8)" />
  <path
     style="fill:#ffff00"
     d="m 58.213104,99.471126 c 2e-5,-0.02318 0.0079,-0.179316 0.01383,-0.274414 0.03618,-0.579041 0.110498,-0.974611 0.329877,-1.75586 0.316856,-1.128382 0.762379,-2.205379 1.317368,-3.18457 l 0.0393,-0.06934 0.01672,0 0.01672,0 -0.05571,0.09863 c -0.185768,0.328914 -0.370185,0.691796 -0.530534,1.043945 -0.581635,1.277352 -0.962288,2.653893 -1.122589,4.05957 -0.0097,0.08496 -0.01153,0.09473 -0.0179,0.09473 -0.0054,0 -0.0071,-0.003 -0.0071,-0.0127 l 0,0 z"
     id="path3947"
     inkscape:connector-curvature="0"
     transform="scale(0.8,0.8)" />
  <path
     style="fill:#ffff00"
     d="m 57.767797,99.473079 c 2.6e-5,-0.01726 0.02605,-0.257383 0.04307,-0.397461 0.149207,-1.227589 0.434704,-2.418452 0.849389,-3.542969 0.158019,-0.428507 0.356259,-0.897261 0.538133,-1.272461 0.03104,-0.06403 0.03665,-0.07324 0.04463,-0.07324 0.005,0 0.0091,8.97e-4 0.0091,0.002 0,0.0011 -0.01777,0.03933 -0.03949,0.08496 -0.601067,1.262923 -1.016814,2.585172 -1.27273,4.047812 -0.06466,0.369538 -0.123399,0.796807 -0.152921,1.112304 -0.0041,0.04434 -0.0055,0.04981 -0.01195,0.04981 -0.0053,0 -0.0073,-0.0029 -0.0073,-0.01074 z"
     id="path3949"
     inkscape:connector-curvature="0"
     transform="scale(0.8,0.8)" />
  <path
     style="fill:#ffff00"
     d="m 57.853728,99.473079 c 1.7e-5,-0.01969 0.01568,-0.173052 0.03342,-0.327149 0.197033,-1.712054 0.677122,-3.376153 1.402201,-4.860351 l 0.04819,-0.09863 0.285576,0 0.285575,0 -0.0047,0.0088 c -0.0026,0.0048 -0.0085,0.01498 -0.0133,0.02255 -0.0048,0.0076 -0.04641,0.08227 -0.09257,0.166016 -0.576675,1.046125 -1.003683,2.127278 -1.331053,3.37013 -0.166182,0.630903 -0.22445,1.003872 -0.254006,1.625877 -0.0021,0.04512 -0.0039,0.08687 -0.0039,0.09277 l -6e-6,0.01074 -0.177734,0 -0.177735,0 10e-6,-0.01074 0,0 z"
     id="path3951"
     inkscape:connector-curvature="0"
     transform="scale(0.8,0.8)" />
  <path
     style="fill:#ffff00"
     d="m 57.853728,99.473079 c 1.7e-5,-0.0197 0.01568,-0.173062 0.03342,-0.327149 0.19686,-1.710466 0.678183,-3.379821 1.400252,-4.856445 l 0.05014,-0.102539 0.285665,0 c 0.157115,0 0.28492,0.0013 0.284011,0.0029 -9.09e-4,0.0016 -0.01221,0.02139 -0.02511,0.04395 -0.158677,0.277521 -0.368972,0.685294 -0.514709,0.998047 -0.112515,0.241458 -0.233408,0.523486 -0.334887,0.78125 -0.177207,0.450115 -0.34685,0.955005 -0.479062,1.425781 -0.234434,0.83476 -0.304286,1.227887 -0.338362,1.904297 -0.0032,0.06338 -0.0058,0.120947 -0.0059,0.12793 l -4.9e-5,0.0127 -0.177734,0 -0.177735,0 10e-6,-0.01074 0,0 z"
     id="path3953"
     inkscape:connector-curvature="0"
     transform="scale(0.8,0.8)" />
  <path
     style="fill:#ffff00"
     d="m 57.853738,99.471126 c 3.3e-5,-0.02093 0.01462,-0.16323 0.03332,-0.325196 0.191102,-1.654342 0.637696,-3.239705 1.322112,-4.693359 0.0349,-0.07412 0.07819,-0.164209 0.09621,-0.200195 l 0.03276,-0.06543 0.285506,0 0.285505,0 -0.0097,0.0166 c -0.04218,0.07218 -0.165598,0.298003 -0.233191,0.426666 -0.496104,0.944323 -0.877838,1.929388 -1.17244,3.025483 -0.188607,0.701729 -0.248315,1.069475 -0.280617,1.728335 -0.0022,0.04502 -0.004,0.08589 -0.004,0.09082 l 0,0.009 -0.177734,0 -0.177735,0 2e-5,-0.0127 0,0 z"
     id="path3955"
     inkscape:connector-curvature="0"
     transform="scale(0.8,0.8)" />
  <path
     style="fill:#ffff00"
     d="m 57.853738,99.471126 c 3.3e-5,-0.02093 0.01462,-0.16323 0.03332,-0.325196 0.191102,-1.654342 0.637696,-3.239705 1.322112,-4.693359 0.0349,-0.07412 0.07819,-0.164209 0.09621,-0.200195 l 0.03276,-0.06543 0.285506,0 0.285505,0 -0.0097,0.0166 c -0.04218,0.07218 -0.165598,0.298003 -0.233191,0.426666 -0.496104,0.944323 -0.877838,1.929388 -1.17244,3.025483 -0.188607,0.701729 -0.248315,1.069475 -0.280617,1.728335 -0.0022,0.04502 -0.004,0.08589 -0.004,0.09082 l 0,0.009 -0.177734,0 -0.177735,0 2e-5,-0.0127 0,0 z"
     id="path3957"
     inkscape:connector-curvature="0"
     transform="scale(0.8,0.8)" />
  <path
     style="fill:#ffff00"
     d="m 57.853738,99.471126 c 3.3e-5,-0.02093 0.01462,-0.16323 0.03332,-0.325196 0.191102,-1.654342 0.637696,-3.239705 1.322112,-4.693359 0.0349,-0.07412 0.07819,-0.164209 0.09621,-0.200195 l 0.03276,-0.06543 0.285506,0 0.285505,0 -0.0097,0.0166 c -0.04218,0.07218 -0.165598,0.298003 -0.233191,0.426666 -0.496104,0.944323 -0.877838,1.929388 -1.17244,3.025483 -0.188607,0.701729 -0.248315,1.069475 -0.280617,1.728335 -0.0022,0.04502 -0.004,0.08589 -0.004,0.09082 l 0,0.009 -0.177734,0 -0.177735,0 2e-5,-0.0127 0,0 z"
     id="path3959"
     inkscape:connector-curvature="0"
     transform="scale(0.8,0.8)" />
  <path
     style="fill:#ffff00"
     d="m 57.853718,99.470615 c 0,-0.02161 0.01832,-0.198561 0.03692,-0.356644 0.09546,-0.811152 0.250895,-1.599654 0.468801,-2.378197 0.02285,-0.08164 0.05025,-0.176775 0.06088,-0.211409 0.01063,-0.03463 0.01947,-0.06715 0.01964,-0.07227 1.7e-4,-0.0051 0.0012,-0.0071 0.0023,-0.0044 0.0015,0.0038 0.04775,0.0049 0.212582,0.0049 0.118486,0 0.210612,0.0015 0.210612,0.0034 0,0.0019 -0.01158,0.0366 -0.02572,0.07715 -0.156553,0.448646 -0.297907,0.921544 -0.413439,1.383159 -0.133856,0.53483 -0.184192,0.882482 -0.213076,1.471626 -0.0022,0.04502 -0.004,0.08501 -0.004,0.08887 0,0.0066 -0.0093,0.007 -0.177734,0.007 l -0.177735,0 0,-0.01321 z"
     id="path3961"
     inkscape:connector-curvature="0"
     transform="scale(0.8,0.8)" />
  <path
     style="fill:#ffff00"
     d=""
     id="path3963"
     inkscape:connector-curvature="0"
     transform="scale(0.8,0.8)" />
  <path
     style="fill:#ffff00"
     d="m 57.853738,99.471126 c 3.3e-5,-0.02093 0.01462,-0.16323 0.03332,-0.325196 0.191102,-1.654342 0.637696,-3.239705 1.322112,-4.693359 0.0349,-0.07412 0.07819,-0.164209 0.09621,-0.200195 l 0.03276,-0.06543 0.285506,0 0.285505,0 -0.0097,0.0166 c -0.04218,0.07218 -0.165598,0.298003 -0.233191,0.426666 -0.496104,0.944323 -0.877838,1.929388 -1.17244,3.025483 -0.188607,0.701729 -0.248315,1.069475 -0.280617,1.728335 -0.0022,0.04502 -0.004,0.08589 -0.004,0.09082 l 0,0.009 -0.177734,0 -0.177735,0 2e-5,-0.0127 0,0 z"
     id="path3965"
     inkscape:connector-curvature="0"
     transform="scale(0.8,0.8)" />
  <path
     style="fill:#ffff00"
     d="m 57.853738,99.471126 c 3.3e-5,-0.02093 0.01462,-0.16323 0.03332,-0.325196 0.191102,-1.654342 0.637696,-3.239705 1.322112,-4.693359 0.0349,-0.07412 0.07819,-0.164209 0.09621,-0.200195 l 0.03276,-0.06543 0.285506,0 0.285505,0 -0.0097,0.0166 c -0.04218,0.07218 -0.165598,0.298003 -0.233191,0.426666 -0.496104,0.944323 -0.877838,1.929388 -1.17244,3.025483 -0.188607,0.701729 -0.248315,1.069475 -0.280617,1.728335 -0.0022,0.04502 -0.004,0.08589 -0.004,0.09082 l 0,0.009 -0.177734,0 -0.177735,0 2e-5,-0.0127 0,0 z"
     id="path3967"
     inkscape:connector-curvature="0"
     transform="scale(0.8,0.8)" />
  <path
     style="fill:#ffff00"
     d="m 57.853738,99.471126 c 3.3e-5,-0.02093 0.01462,-0.16323 0.03332,-0.325196 0.191102,-1.654342 0.637696,-3.239705 1.322112,-4.693359 0.0349,-0.07412 0.07819,-0.164209 0.09621,-0.200195 l 0.03276,-0.06543 0.285506,0 0.285505,0 -0.0097,0.0166 c -0.04218,0.07218 -0.165598,0.298003 -0.233191,0.426666 -0.496104,0.944323 -0.877838,1.929388 -1.17244,3.025483 -0.188607,0.701729 -0.248315,1.069475 -0.280617,1.728335 -0.0022,0.04502 -0.004,0.08589 -0.004,0.09082 l 0,0.009 -0.177734,0 -0.177735,0 2e-5,-0.0127 0,0 z"
     id="path3969"
     inkscape:connector-curvature="0"
     transform="scale(0.8,0.8)" />
  <path
     style="fill:#ffff00"
     d="m 57.853738,99.471126 c 3.3e-5,-0.02093 0.01462,-0.16323 0.03332,-0.325196 0.191102,-1.654342 0.637696,-3.239705 1.322112,-4.693359 0.0349,-0.07412 0.07819,-0.164209 0.09621,-0.200195 l 0.03276,-0.06543 0.285506,0 0.285505,0 -0.0097,0.0166 c -0.04218,0.07218 -0.165598,0.298003 -0.233191,0.426666 -0.496104,0.944323 -0.877838,1.929388 -1.17244,3.025483 -0.188607,0.701729 -0.248315,1.069475 -0.280617,1.728335 -0.0022,0.04502 -0.004,0.08589 -0.004,0.09082 l 0,0.009 -0.177734,0 -0.177735,0 2e-5,-0.0127 0,0 z"
     id="path3971"
     inkscape:connector-curvature="0"
     transform="scale(0.8,0.8)" />
  <path
     style="fill:#ffff00"
     d=""
     id="path3973"
     inkscape:connector-curvature="0"
     transform="scale(0.8,0.8)" />
  <path
     style="fill:#ffff00"
     d="m 57.853738,99.471126 c 3.3e-5,-0.02093 0.01462,-0.16323 0.03332,-0.325196 0.191102,-1.654342 0.637696,-3.239705 1.322112,-4.693359 0.0349,-0.07412 0.07819,-0.164209 0.09621,-0.200195 l 0.03276,-0.06543 0.285506,0 0.285505,0 -0.0097,0.0166 c -0.04218,0.07218 -0.165598,0.298003 -0.233191,0.426666 -0.496104,0.944323 -0.877838,1.929388 -1.17244,3.025483 -0.188607,0.701729 -0.248315,1.069475 -0.280617,1.728335 -0.0022,0.04502 -0.004,0.08589 -0.004,0.09082 l 0,0.009 -0.177734,0 -0.177735,0 2e-5,-0.0127 0,0 z"
     id="path3975"
     inkscape:connector-curvature="0"
     transform="scale(0.8,0.8)" />
</svg>
